<?xml version="1.0" encoding="UTF-8"?>
<svg version="1.1" xmlns="http://www.w3.org/2000/svg" width="436" height="144">
<path d="M0 0 C143.88 0 287.76 0 436 0 C436 47.52 436 95.04 436 144 C292.12 144 148.24 144 0 144 C0 96.48 0 48.96 0 0 Z " fill="#F9CF2C" transform="translate(0,0)"/>
<path d="M0 0 C10.13996343 7.60497257 18.06268762 18.2171978 20 31 C21.23103677 46.68033091 18.36086383 60.09855473 7.96484375 72.41015625 C-0.55121272 81.40683672 -10.97359243 87.84945238 -23.55859375 88.43359375 C-25.51815552 88.45063342 -27.4779158 88.451728 -29.4375 88.4375 C-30.41009766 88.45748047 -31.38269531 88.47746094 -32.38476562 88.49804688 C-44.32226376 88.49007259 -53.00909327 83.58387907 -62 76 C-64.19549894 73.75373807 -66.07828847 71.49303118 -68 69 C-67.21753906 68.81824219 -66.43507813 68.63648437 -65.62890625 68.44921875 C-64.61699219 68.19785156 -63.60507812 67.94648437 -62.5625 67.6875 C-61.55316406 67.44386719 -60.54382813 67.20023437 -59.50390625 66.94921875 C-58.67761719 66.63597656 -57.85132813 66.32273437 -57 66 C-56.505 64.515 -56.505 64.515 -56 63 C-55.67 63 -55.34 63 -55 63 C-55 64.65 -55 66.3 -55 68 C-50.38 68 -45.76 68 -41 68 C-41 52.49 -41 36.98 -41 21 C-45.62 21 -50.24 21 -55 21 C-54.94199219 23.25199219 -54.88398438 25.50398438 -54.82421875 27.82421875 C-54.78517972 30.01518231 -54.75484614 32.20610654 -54.7253418 34.3972168 C-54.70025891 35.91529801 -54.6661834 37.43325918 -54.62280273 38.95092773 C-54.56186707 41.13815965 -54.53373105 43.32379039 -54.51171875 45.51171875 C-54.48553467 46.82615967 -54.45935059 48.14060059 -54.43237305 49.49487305 C-55.14180226 53.87563657 -56.53194996 55.31992651 -60 58 C-64.14224306 58.57991403 -65.48175489 58.34549674 -69 56 C-70.1687481 52.4937557 -70.12514267 49.3522134 -70.09765625 45.70703125 C-70.09553383 44.64798836 -70.09553383 44.64798836 -70.09336853 43.56755066 C-70.08777764 41.31582374 -70.07522688 39.06419679 -70.0625 36.8125 C-70.05748382 35.28450665 -70.05292112 33.75651173 -70.04882812 32.22851562 C-70.0378112 28.48563865 -70.02055287 24.74283627 -70 21 C-71.32 20.67 -72.64 20.34 -74 20 C-65.36880872 4.99181173 -55.71415081 -3.20721644 -39.1171875 -8.61328125 C-25.25982963 -11.14442226 -11.57059502 -7.9445987 0 0 Z " fill="#FCFCFA" transform="translate(375,34)"/>
<path d="M0 0 C4.95 0 9.9 0 15 0 C18.39095833 3.50399028 19.83068426 5.778103 22 10 C23.35765232 12.26659793 24.75266338 14.50779856 26.14941406 16.75048828 C27.97189196 19.68321827 29.75398873 22.6393245 31.53369141 25.59814453 C33.66100929 29.08275214 35.83620369 32.5379259 38 36 C38.33 24.12 38.66 12.24 39 0 C43.95 0 48.9 0 54 0 C54 20.79 54 41.58 54 63 C49.05 63 44.1 63 39 63 C35.68274901 59.42782408 34.09710474 57.1864685 32 53 C30.87447693 51.19233188 29.7337916 49.3940159 28.578125 47.60546875 C27.4656982 45.80135737 26.3563225 43.99536111 25.25 42.1875 C24.68667969 41.27291016 24.12335938 40.35832031 23.54296875 39.41601562 C21.00487537 35.29086386 18.49201024 31.1533504 16 27 C15.67 38.88 15.34 50.76 15 63 C10.05 63 5.1 63 0 63 C0 42.21 0 21.42 0 0 Z " fill="#030300" transform="translate(55,39)"/>
<path d="M0 0 C4.62 0 9.24 0 14 0 C14 20.79 14 41.58 14 63 C9.38 63 4.76 63 0 63 C-0.33 62.01 -0.66 61.02 -1 60 C-1.78375 60.66 -2.5675 61.32 -3.375 62 C-7.68913243 64.83878054 -12.00929081 64.89339856 -17 64 C-23.64076963 61.22543187 -27.56023989 56.87952022 -30.75 50.5 C-33.21799961 43.28689618 -33.22158381 35.03548894 -30.25 28 C-26.79812595 21.44383644 -23.13387256 17.35279395 -16 15 C-9.1751537 13.85675164 -7.09681806 14.93545463 -1 19 C-0.67 12.73 -0.34 6.46 0 0 Z " fill="#050401" transform="translate(268,39)"/>
<path d="M0 0 C4.87713769 4.99609227 5.14380976 9.24165007 5.09765625 15.94921875 C5.0962413 16.72183548 5.09482635 17.49445221 5.09336853 18.29048157 C5.08777466 20.75619389 5.07522333 23.22181515 5.0625 25.6875 C5.05748421 27.36002473 5.05292144 29.03255088 5.04882812 30.70507812 C5.03780724 34.80342046 5.02054684 38.90169479 5 43 C0.38 43 -4.24 43 -9 43 C-9.33 42.01 -9.66 41.02 -10 40 C-10.78375 40.66 -11.5675 41.32 -12.375 42 C-16.68353014 44.86216777 -21.00701361 44.64093803 -26 44 C-29.98971658 43.08395502 -32.55040821 41.46111979 -35.4375 38.5 C-37.6337464 33.58040807 -37.89151653 29.30176199 -37 24 C-35.26795351 20.0410366 -32.29080088 17.8936695 -28.375 16.25 C-22.10791922 14.23643222 -15.57823235 13 -9 13 C-9.33 11.02 -9.66 9.04 -10 7 C-15.28843118 6.48057397 -15.28843118 6.48057397 -19.9375 8.375 C-21.05923484 10.02249424 -21.05923484 10.02249424 -22 12 C-26.62 12 -31.24 12 -36 12 C-34.18142644 4.93965558 -32.22289835 0.95636856 -26 -3 C-17.00610081 -7.39701738 -8.02006103 -5.38091846 0 0 Z " fill="#060501" transform="translate(154,59)"/>
<path d="M0 0 C4.62 0 9.24 0 14 0 C14.06058594 2.27519531 14.12117188 4.55039062 14.18359375 6.89453125 C14.24540725 9.0987472 14.30878494 11.302913 14.37231445 13.50708008 C14.41561833 15.03861018 14.45729667 16.57018715 14.49731445 18.10180664 C14.55512732 20.30369182 14.61878969 22.50534211 14.68359375 24.70703125 C14.70030624 25.39150833 14.71701874 26.07598541 14.73423767 26.78120422 C14.8273555 29.77120104 15.04687437 32.14062311 16 35 C18.84083641 36.42041821 20.85477278 36.31452272 24 36 C26.30355424 34.49787721 26.30355424 34.49787721 28 32 C28.64273954 28.52275106 28.64273954 28.52275106 28.609375 24.609375 C28.62591125 23.90476135 28.64244751 23.20014771 28.65948486 22.47418213 C28.70791139 20.23269898 28.72932187 17.99189387 28.75 15.75 C28.77816448 14.22652849 28.80809259 12.70308848 28.83984375 11.1796875 C28.91697946 7.45281492 28.95753903 3.7280729 29 0 C33.62 0 38.24 0 43 0 C43 15.51 43 31.02 43 47 C38.38 47 33.76 47 29 47 C28.67 45.68 28.34 44.36 28 43 C27.401875 43.639375 26.80375 44.27875 26.1875 44.9375 C22.40587345 48.50303361 18.52285229 48.34563196 13.5703125 48.2734375 C9.36720656 47.82629857 7.35766271 46.61897692 4 44 C0.20963754 38.58087292 -0.56485408 34.74787542 -0.390625 28.22265625 C-0.38496521 27.41130722 -0.37930542 26.59995819 -0.37347412 25.76402283 C-0.3512492 23.1962245 -0.30108235 20.62986985 -0.25 18.0625 C-0.2299169 16.31186924 -0.21166931 14.56121641 -0.1953125 12.81054688 C-0.15143044 8.53981622 -0.08250275 4.27015207 0 0 Z " fill="#060605" transform="translate(291,55)"/>
<path d="M0 0 C13.53 0 27.06 0 41 0 C41 11.11262249 41 11.11262249 37.1887207 14.94433594 C36.38374146 15.68345215 36.38374146 15.68345215 35.5625 16.4375 C34.46083543 17.5324401 33.36191154 18.63014403 32.265625 19.73046875 C31.71583984 20.27106934 31.16605469 20.81166992 30.59960938 21.36865234 C27.35413845 24.67851753 24.54252899 28.33976565 21.64453125 31.953125 C20 34 20 34 19 35 C26.26 35.33 33.52 35.66 41 36 C41 39.63 41 43.26 41 47 C27.14 47 13.28 47 -1 47 C-1 38 -1 38 0.87109375 35.1015625 C1.71800781 34.28429687 2.56492188 33.46703125 3.4375 32.625 C7.93903217 28.08515692 12.0050519 23.40511026 15.9921875 18.41015625 C17.86659549 16.16013732 19.92925249 14.07074751 22 12 C14.74 11.67 7.48 11.34 0 11 C0 7.37 0 3.74 0 0 Z " fill="#050401" transform="translate(167,55)"/>
<path d="M0 0 C4.29 0 8.58 0 13 0 C13.33 16.5 13.66 33 14 50 C15.98 50.66 17.96 51.32 20 52 C20 55.63 20 59.26 20 63 C17.60225255 63.13572155 15.21224755 63.23436868 12.8125 63.3125 C11.80219727 63.3753418 11.80219727 63.3753418 10.77148438 63.43945312 C7.31326371 63.52379997 5.22827986 63.1440553 2.29492188 61.29296875 C-1.76222693 56.90682144 -0.60383717 50.38954957 -0.48828125 44.82421875 C-0.48120651 43.54392288 -0.47413177 42.26362701 -0.46684265 40.9445343 C-0.44781714 37.55254688 -0.39875838 34.16164226 -0.34332275 30.77008057 C-0.29203199 27.30455166 -0.26930789 23.83884653 -0.24414062 20.37304688 C-0.18903361 13.58150255 -0.10273564 6.79098412 0 0 Z " fill="#020202" transform="translate(343,39)"/>
<path d="M0 0 C4.62 0 9.24 0 14 0 C14 15.51 14 31.02 14 47 C9.38 47 4.76 47 0 47 C0 31.49 0 15.98 0 0 Z " fill="#040300" transform="translate(215,55)"/>
<path d="M0 0 C3.49406769 1.66762322 4.82670681 2.74006022 7 6 C7.30078125 8.7421875 7.30078125 8.7421875 7.3125 11.875 C7.32925781 12.90367188 7.34601563 13.93234375 7.36328125 14.9921875 C6.94933376 18.41949466 6.04951391 20.24491572 4 23 C0.82034078 25.11977281 -1.19939606 25.53394409 -4.99609375 25.45703125 C-8.7419045 24.60272354 -9.9709625 22.13578523 -12 19 C-13.24133624 15.27599129 -13.54111486 11.86824 -13 8 C-9.77221326 1.98963848 -6.96712417 -0.69671242 0 0 Z " fill="#F4CB2B" transform="translate(263,66)"/>
<path d="M0 0 C3 1.5625 3 1.5625 5 4 C5.067104 7.82492824 4.85825932 10.01459116 2.3125 12.9375 C-0.7864448 14.3613395 -2.62182812 14.55153827 -6 14 C-9.04569423 11.68262395 -10.73181298 10.22174087 -11.5625 6.4375 C-10.103023 0.11309968 -5.94280802 -0.83407832 0 0 Z " fill="#0B0901" transform="translate(225,38)"/>
<path d="M0 0 C-0.25080841 3.67852334 -0.61441247 5.55599012 -3.0625 8.375 C-7.08490554 10.60016051 -9.44056821 10.4484687 -14 10 C-14.66 9.34 -15.32 8.68 -16 8 C-15.82594043 5.30207664 -15.22835016 4.22835016 -13.3125 2.3125 C-9.11886154 -0.06767318 -4.73408771 -0.13923787 0 0 Z " fill="#EEC629" transform="translate(146,82)"/>
</svg>
