<?xml version="1.0" standalone="no"?>
<!DOCTYPE svg PUBLIC "-//W3C//DTD SVG 20010904//EN"
 "http://www.w3.org/TR/2001/REC-SVG-20010904/DTD/svg10.dtd">
<svg version="1.0" xmlns="http://www.w3.org/2000/svg"
 width="307.000000pt" height="135.000000pt" viewBox="0 0 307.000000 135.000000"
 preserveAspectRatio="xMidYMid meet">
<metadata>
Created by potrace 1.16, written by Peter Selinger 2001-2019
</metadata>
<g transform="translate(0.000000,135.000000) scale(0.100000,-0.100000)"
fill="#000000" stroke="none">
<path d="M945 1181 c-75 -35 -125 -111 -125 -191 0 -38 -2 -40 -30 -40 l-30 0
0 -152 c0 -91 -4 -148 -9 -142 -5 5 -22 32 -37 59 -15 28 -54 92 -88 142 l-61
93 -52 0 -53 0 0 -235 0 -235 45 0 45 0 0 162 0 161 65 -99 c36 -54 82 -127
103 -162 l36 -62 48 0 48 0 0 192 0 191 37 -36 c20 -20 33 -40 30 -43 -4 -4 3
-20 14 -35 l21 -29 25 20 c32 25 120 28 129 5 9 -24 -13 -43 -59 -50 -71 -12
-122 -39 -136 -73 -38 -90 48 -174 144 -142 19 6 40 20 46 31 10 19 11 19 30
-5 l20 -26 185 0 184 0 0 35 0 34 -92 3 -92 3 87 102 c78 92 87 107 87 143 l0
40 -135 0 -135 0 0 -35 0 -35 80 0 c44 0 80 -4 80 -10 0 -16 -165 -205 -183
-208 -15 -3 -17 8 -17 90 -1 51 -7 109 -14 129 -12 34 -11 38 12 60 83 79 81
231 -4 311 -62 58 -171 75 -249 39z"/>
<path d="M1940 890 l0 -90 -32 20 c-41 25 -110 26 -150 3 -47 -28 -70 -83 -70
-169 1 -105 41 -169 115 -181 49 -7 79 1 110 33 l27 27 0 -27 c0 -24 3 -26 45
-26 l45 0 0 250 0 250 -45 0 -45 0 0 -90z m-37 -140 c30 -24 42 -73 33 -125
-14 -71 -84 -98 -131 -50 -21 20 -25 34 -25 80 0 64 12 92 43 105 35 14 52 12
80 -10z"/>
<path d="M2472 751 c3 -255 5 -263 72 -275 49 -9 66 1 66 39 0 27 -4 34 -22
37 -23 3 -23 4 -26 216 l-2 212 -46 0 -45 0 3 -229z"/>
<path d="M1550 660 l0 -180 45 0 45 0 0 180 0 180 -45 0 -45 0 0 -180z"/>
<path d="M2090 705 c0 -163 11 -198 67 -221 48 -21 98 -12 135 22 l28 28 0
-27 c0 -25 3 -27 45 -27 l45 0 -2 178 -3 177 -42 3 -43 3 0 -93 c-1 -152 -19
-198 -80 -198 -51 0 -60 24 -60 163 l0 127 -45 0 -45 0 0 -135z"/>
</g>
</svg>
