<?xml version="1.0" standalone="no"?>
<!DOCTYPE svg PUBLIC "-//W3C//DTD SVG 20010904//EN"
 "http://www.w3.org/TR/2001/REC-SVG-20010904/DTD/svg10.dtd">
<svg version="1.0" xmlns="http://www.w3.org/2000/svg"
 width="250.000000pt" height="111.000000pt" viewBox="0 0 250.000000 111.000000"
 preserveAspectRatio="xMidYMid meet">
<metadata>
renovate by practice 1.16, written by Peter Nazidul 2024
</metadata>
<g transform="translate(0.000000,111.000000) scale(0.100000,-0.100000)"
fill="#000000" stroke="none">
<path d="M0 555 l0 -555 1250 0 1250 0 0 555 0 555 -1250 0 -1250 0 0 -555z
m360 255 l0 -140 80 0 80 0 0 -70 0 -71 -157 3 -158 3 -3 208 -2 207 80 0 80
0 0 -140z m1052 99 c11 -6 26 -26 34 -45 14 -33 15 -34 42 -20 66 34 174 41
258 15 75 -23 113 -113 81 -190 -14 -35 -14 -36 14 -46 39 -15 39 -56 0 -109
-46 -64 -87 -94 -130 -94 -47 0 -68 16 -84 62 l-13 37 -38 -44 c-20 -25 -51
-52 -68 -61 -40 -21 -110 -21 -140 -2 -21 14 -28 14 -49 2 -13 -7 -40 -13 -61
-14 -45 0 -82 39 -92 99 -3 23 -10 41 -14 41 -4 -1 -24 -25 -45 -56 -70 -101
-154 -134 -241 -96 -25 12 -49 28 -52 36 -5 14 -46 16 -325 16 l-319 0 0 30 0
30 310 0 c269 0 310 2 310 15 0 12 -13 15 -55 15 -62 0 -97 14 -137 57 -57 61
-56 151 3 218 98 111 289 39 289 -109 l0 -35 -97 -3 c-93 -3 -96 -4 -70 -17
22 -12 35 -12 57 -4 22 8 31 7 42 -4 12 -11 20 -12 41 -2 33 15 73 5 80 -21 3
-13 13 -20 29 -20 38 0 40 10 8 46 -43 50 -57 106 -39 157 30 86 140 117 201
57 l30 -30 40 36 c22 20 54 42 72 50 38 16 100 18 128 3z m790 -80 c41 -22 58
-84 58 -216 l0 -123 -75 0 -75 0 0 94 c0 107 -5 126 -30 126 -25 0 -30 -19
-30 -126 l0 -94 -75 0 -75 0 0 170 0 170 74 0 c60 0 75 -3 80 -17 6 -15 9 -14
29 5 24 24 84 30 119 11z m108 -404 l0 -25 -220 0 -220 0 0 25 0 25 220 0 220
0 0 -25z"/>
</g>
</svg>
