<svg width="61" height="39" viewBox="0 0 61 39" fill="none" xmlns="http://www.w3.org/2000/svg">
<g filter="url(#filter0_d_15_18)">
<path d="M10.464 30.08C9.12 30.08 8.01067 29.8453 7.136 29.376C6.26133 28.9067 5.61067 28.2987 5.184 27.552C4.75733 26.8053 4.544 26.0373 4.544 25.248C4.544 24.608 4.65067 24.032 4.864 23.52C5.29067 22.5173 6.05867 21.6427 7.168 20.896C8.27733 20.1493 9.632 19.776 11.232 19.776C11.424 19.776 11.616 19.7867 11.808 19.808C12.0213 19.8293 12.2133 19.8613 12.384 19.904C12.6187 19.8827 12.8427 19.808 13.056 19.68C13.2693 19.5307 13.4293 19.4027 13.536 19.296C13.6427 19.168 13.728 19.04 13.792 18.912C13.856 18.7627 13.888 18.6347 13.888 18.528C13.888 18.3787 13.8347 18.272 13.728 18.208C13.664 18.1653 13.632 18.1227 13.632 18.08C13.632 17.9307 13.7707 17.8987 14.048 17.984C14.4533 18.112 14.656 18.368 14.656 18.752C14.656 19.1147 14.464 19.424 14.08 19.68C13.9307 19.808 13.7493 19.904 13.536 19.968C13.344 20.0107 13.1413 20.032 12.928 20.032C13.6533 20.2453 14.3147 20.6187 14.912 21.152L15.072 21.088C15.3493 21.0027 15.6587 21.056 16 21.248C16.3413 21.44 16.5867 21.7493 16.736 22.176C16.8427 22.496 16.896 22.8373 16.896 23.2C16.896 23.584 16.832 23.9573 16.704 24.32C16.5973 24.6827 16.416 24.9387 16.16 25.088C15.904 25.2373 15.744 25.248 15.68 25.12C15.8293 24.992 15.904 24.8427 15.904 24.672C15.904 24.5013 15.84 24.32 15.712 24.128C15.6053 23.9573 15.488 23.8293 15.36 23.744C15.232 23.6373 15.0933 23.52 14.944 23.392C14.7947 23.2427 14.656 23.0293 14.528 22.752C14.4213 22.5387 14.368 22.336 14.368 22.144C14.368 21.8667 14.4533 21.6213 14.624 21.408C13.536 20.5333 12.2773 20.16 10.848 20.288C9.696 20.3947 8.72533 20.704 7.936 21.216C7.14667 21.7067 6.54933 22.3147 6.144 23.04C5.73867 23.7653 5.536 24.5227 5.536 25.312C5.536 26.3573 5.87733 27.2853 6.56 28.096L6.496 28C6.34667 27.7013 6.272 27.3493 6.272 26.944C6.272 26.688 6.304 26.4533 6.368 26.24C6.64533 25.536 7.04 25.184 7.552 25.184C7.89333 25.184 8.17067 25.344 8.384 25.664C8.46933 25.7707 8.512 25.888 8.512 26.016C8.512 26.208 8.42667 26.24 8.256 26.112C8.10667 26.0053 7.91467 26.016 7.68 26.144C7.44533 26.2933 7.24267 26.496 7.072 26.752C6.98667 26.8587 6.912 27.0187 6.848 27.232C6.784 27.4453 6.752 27.6693 6.752 27.904C6.752 28.032 6.77333 28.1813 6.816 28.352C7.22133 28.7573 7.712 29.0773 8.288 29.312C8.864 29.5467 9.536 29.664 10.304 29.664C11.4133 29.664 12.512 29.3867 13.6 28.832C14.688 28.2987 15.744 27.584 16.768 26.688C17.792 25.792 18.7733 24.7893 19.712 23.68C20.6507 22.5707 21.536 21.44 22.368 20.288C23.2 19.1147 23.9573 18.0053 24.64 16.96C25.344 15.9147 25.952 15.0187 26.464 14.272C27.5307 12.6933 28.64 11.1787 29.792 9.728C30.944 8.27733 32.1707 7.104 33.472 6.208C31.9787 5.71733 30.3893 5.19467 28.704 4.64C27.04 4.08533 25.3547 3.68 23.648 3.424C23.136 3.31733 22.6453 3.25333 22.176 3.232C22.1973 3.25333 22.176 3.25333 22.112 3.232C21.8347 3.18933 21.5893 3.25333 21.376 3.424C21.1627 3.57333 21.0133 3.712 20.928 3.84C20.7787 4.096 20.704 4.33067 20.704 4.544C20.704 4.736 20.768 4.864 20.896 4.928C21.0027 4.97067 21.056 5.024 21.056 5.088C21.056 5.17333 20.9813 5.216 20.832 5.216C20.6613 5.216 20.4587 5.152 20.224 5.024C20.0107 4.896 19.904 4.69333 19.904 4.416C19.904 4.13867 20.0107 3.88267 20.224 3.648C20.4587 3.41333 20.7467 3.25333 21.088 3.168C19.36 3.12533 17.8667 3.328 16.608 3.776C15.3493 4.224 14.3147 4.82133 13.504 5.568C12.6933 6.29333 12.0853 7.104 11.68 8C11.7653 8 11.808 8.05333 11.808 8.16C11.7867 8.608 11.84 8.97067 11.968 9.248C12.096 9.52533 12.2667 9.78133 12.48 10.016C12.608 9.78133 12.7893 9.61067 13.024 9.504C13.2587 9.39733 13.504 9.344 13.76 9.344C13.9733 9.344 14.1547 9.376 14.304 9.44C14.6667 9.568 14.944 9.71733 15.136 9.888C15.3493 10.0373 15.5307 10.1973 15.68 10.368C15.7867 10.496 15.9467 10.6133 16.16 10.72C16.3733 10.8267 16.576 10.88 16.768 10.88C17.0667 10.88 17.2907 10.7627 17.44 10.528C17.504 10.592 17.536 10.688 17.536 10.816C17.536 11.136 17.376 11.4133 17.056 11.648C16.7573 11.8827 16.384 12.064 15.936 12.192C15.5093 12.32 15.0827 12.384 14.656 12.384C13.888 12.384 13.28 12.16 12.832 11.712C12.4053 11.2427 12.2347 10.8053 12.32 10.4L12.352 10.336C12.0747 10.1013 11.872 9.856 11.744 9.6C11.616 9.32267 11.4987 9.024 11.392 8.704C11.1573 9.45067 11.04 10.1547 11.04 10.816C11.04 11.6907 11.2213 12.5227 11.584 13.312C11.9467 14.08 12.48 14.6987 13.184 15.168C13.888 15.6373 14.7413 15.872 15.744 15.872C16.7467 15.872 17.7173 15.616 18.656 15.104C19.5947 14.5707 20.352 13.856 20.928 12.96C21.504 12.0427 21.7493 11.008 21.664 9.856C21.6427 9.49333 21.5147 9.12 21.28 8.736C21.0667 8.352 20.7467 8.16 20.32 8.16C20.2133 8.16 20.096 8.18133 19.968 8.224C19.84 8.26667 19.7547 8.34133 19.712 8.448C19.6907 8.512 19.648 8.544 19.584 8.544C19.4773 8.544 19.424 8.448 19.424 8.256C19.424 7.95733 19.5307 7.712 19.744 7.52C19.9787 7.328 20.2347 7.232 20.512 7.232C20.8107 7.232 21.0987 7.38133 21.376 7.68C21.6747 7.97867 21.8347 8.50133 21.856 9.248C21.92 9.056 22.0053 8.864 22.112 8.672C22.3467 8.352 22.624 8.192 22.944 8.192C23.2853 8.192 23.5093 8.352 23.616 8.672C23.6587 8.8 23.6587 8.896 23.616 8.96C23.5733 9.024 23.5093 9.01333 23.424 8.928C23.36 8.864 23.2853 8.832 23.2 8.832C23.0293 8.832 22.8053 8.928 22.528 9.12C22.464 9.184 22.3893 9.28 22.304 9.408C22.2187 9.536 22.1547 9.68533 22.112 9.856C22.1547 11.1573 21.9093 12.2773 21.376 13.216C20.8427 14.1547 20.1493 14.8907 19.296 15.424C19.4027 15.4027 19.4987 15.392 19.584 15.392C19.6693 15.3707 19.7547 15.36 19.84 15.36C20.2667 15.36 20.608 15.4773 20.864 15.712C21.1413 15.9253 21.28 16.16 21.28 16.416C21.28 16.6933 21.1413 16.928 20.864 17.12C20.7147 17.2053 20.5973 17.2373 20.512 17.216C20.4267 17.1733 20.4267 17.0987 20.512 16.992C20.6187 16.864 20.608 16.704 20.48 16.512C20.3733 16.32 20.2133 16.1493 20 16C19.7653 15.808 19.4453 15.712 19.04 15.712C18.9973 15.712 18.944 15.712 18.88 15.712C18.816 15.712 18.7627 15.7227 18.72 15.744C17.8027 16.1707 16.832 16.384 15.808 16.384C14.5067 16.384 13.3973 16.128 12.48 15.616C11.584 15.0827 10.88 14.4213 10.368 13.632C10.368 13.76 10.3467 13.9093 10.304 14.08C10.176 14.4853 9.952 14.8373 9.632 15.136C9.73867 15.3493 9.792 15.5733 9.792 15.808C9.792 16.3413 9.568 16.832 9.12 17.28C8.864 17.5573 8.49067 17.8027 8 18.016C7.50933 18.208 7.04 18.304 6.592 18.304C6.22933 18.304 5.93067 18.2187 5.696 18.048C5.54667 17.9413 5.46133 17.8453 5.44 17.76C5.41867 17.6533 5.41867 17.5893 5.44 17.568C5.504 17.6107 5.6 17.632 5.728 17.632C5.984 17.632 6.208 17.5147 6.4 17.28C6.61333 17.024 6.74133 16.7893 6.784 16.576C6.82667 16.3627 6.89067 16.1387 6.976 15.904C7.06133 15.6693 7.21067 15.424 7.424 15.168C7.744 14.784 8.14933 14.592 8.64 14.592C8.98133 14.592 9.25867 14.6987 9.472 14.912C9.68533 14.656 9.84533 14.3147 9.952 13.888C9.97333 13.7813 9.984 13.6747 9.984 13.568C10.0053 13.4613 10.016 13.3653 10.016 13.28C10.016 13.088 10.0053 12.9493 9.984 12.864C9.664 12.096 9.504 11.2747 9.504 10.4C9.504 9.65333 9.62133 8.90667 9.856 8.16C10.112 7.392 10.496 6.67733 11.008 6.016C10.9227 6.03733 10.816 6.05867 10.688 6.08C10.5813 6.08 10.4747 6.08 10.368 6.08C10.0907 6.08 9.81333 6.02667 9.536 5.92C9.28 5.81333 9.04533 5.65333 8.832 5.44C8.768 5.46133 8.672 5.472 8.544 5.472C8.24533 5.472 7.92533 5.35467 7.584 5.12C7.264 4.88533 7.01867 4.56533 6.848 4.16C6.72 3.84 6.656 3.456 6.656 3.008C6.656 2.51733 6.73067 2.048 6.88 1.6C7.02933 1.152 7.25333 0.853333 7.552 0.703999C7.72267 0.597332 7.85067 0.554665 7.936 0.575998C8.02133 0.597333 8.08533 0.618666 8.128 0.639999C7.95733 0.789332 7.872 0.981332 7.872 1.216C7.872 1.42933 7.936 1.64267 8.064 1.856C8.192 2.048 8.33067 2.19733 8.48 2.304C8.65067 2.432 8.82133 2.58133 8.992 2.752C9.184 2.92267 9.35467 3.15733 9.504 3.456C9.61067 3.712 9.664 3.94667 9.664 4.16C9.664 4.672 9.48267 5.056 9.12 5.312C9.41867 5.568 9.81333 5.696 10.304 5.696H10.496C10.7947 5.696 11.104 5.64267 11.424 5.536C12.256 4.59733 13.3653 3.82933 14.752 3.232C16.1387 2.63467 17.824 2.336 19.808 2.336C20.2987 2.336 20.8 2.35733 21.312 2.4C21.824 2.44267 22.3467 2.50667 22.88 2.592C24.0107 2.76267 25.2373 3.04 26.56 3.424C27.904 3.808 29.2267 4.21333 30.528 4.64C31.8293 5.06667 32.992 5.46133 34.016 5.824C34.6347 5.46133 35.264 5.17333 35.904 4.96C36.544 4.74667 37.2053 4.64 37.888 4.64C38.4853 4.64 38.9333 4.768 39.232 5.024C39.552 5.28 39.712 5.568 39.712 5.888C39.712 6.22933 39.52 6.53867 39.136 6.816C38.7733 7.09333 38.1973 7.22133 37.408 7.2C36.832 8.05333 36.3093 8.992 35.84 10.016C35.3707 11.04 34.944 12.064 34.56 13.088C34.1973 14.112 33.888 15.0613 33.632 15.936C33.312 17.024 32.96 18.0587 32.576 19.04C32.2133 20.0213 31.6587 20.9173 30.912 21.728C32.2347 20.7253 33.44 19.5733 34.528 18.272C35.6373 16.9707 36.64 15.6373 37.536 14.272C38.1333 13.3547 38.8587 12.32 39.712 11.168C40.5653 9.99467 41.504 8.82133 42.528 7.648C43.552 6.45333 44.608 5.344 45.696 4.32C46.8053 3.27467 47.9147 2.42133 49.024 1.76C50.1333 1.07733 51.1893 0.693332 52.192 0.608C52.32 0.586665 52.448 0.575998 52.576 0.575998C52.704 0.575998 52.8213 0.575998 52.928 0.575998C54.1653 0.575998 55.0507 0.842665 55.584 1.376C56.1173 1.888 56.384 2.44267 56.384 3.04C56.384 3.424 56.2773 3.78667 56.064 4.128C55.8507 4.448 55.5627 4.672 55.2 4.8L55.136 4.48C55.648 4.18133 55.904 3.75467 55.904 3.2C55.904 2.77333 55.712 2.37867 55.328 2.016C54.9653 1.65333 54.4107 1.472 53.664 1.472C53.28 1.472 52.8427 1.536 52.352 1.664C51.584 1.87733 50.7307 2.31467 49.792 2.976C48.8533 3.63733 47.872 4.42667 46.848 5.344C45.8453 6.26133 44.8533 7.24267 43.872 8.288C42.912 9.312 42.016 10.304 41.184 11.264C40.352 12.224 39.6373 13.0667 39.04 13.792C38.464 14.5173 38.0587 15.04 37.824 15.36C37.44 15.8933 36.9493 16.5333 36.352 17.28C35.776 18.0267 35.1147 18.7947 34.368 19.584C33.6427 20.352 32.8747 21.0773 32.064 21.76C31.2533 22.4213 30.432 22.9653 29.6 23.392C28.768 23.7973 27.9573 24 27.168 24C26.7413 24 26.528 23.9573 26.528 23.872C26.528 23.7653 26.6667 23.648 26.944 23.52C27.2213 23.392 27.4027 23.2853 27.488 23.2C27.5947 23.1147 27.776 22.8587 28.032 22.432C28.288 22.0053 28.5867 21.4933 28.928 20.896C29.2907 20.2773 29.6533 19.6373 30.016 18.976C30.4 18.3147 30.7413 17.7067 31.04 17.152C31.3387 16.576 31.5627 16.1173 31.712 15.776C31.84 15.52 32.0747 15.0613 32.416 14.4C32.7573 13.7173 33.1733 12.9493 33.664 12.096C34.1547 11.2213 34.6667 10.3467 35.2 9.472C35.7547 8.576 36.2987 7.79733 36.832 7.136C36.6827 7.11467 36.512 7.08267 36.32 7.04C36.128 6.99733 35.9253 6.95467 35.712 6.912L34.784 6.624C34.1013 7.2 33.4293 7.88267 32.768 8.672C32.1067 9.46133 31.488 10.272 30.912 11.104C30.3573 11.9147 29.856 12.6827 29.408 13.408C28.96 14.1333 28.5973 14.72 28.32 15.168C27.68 16.256 26.8907 17.4613 25.952 18.784C25.0133 20.1067 23.9573 21.4293 22.784 22.752C21.6107 24.0747 20.352 25.2907 19.008 26.4C17.6853 27.5093 16.2987 28.3947 14.848 29.056C13.3973 29.7387 11.936 30.08 10.464 30.08ZM38.016 6.688C38.3787 6.66667 38.6667 6.57067 38.88 6.4C39.0933 6.22933 39.2 6.03733 39.2 5.824C39.2 5.632 39.0933 5.46133 38.88 5.312C38.688 5.16267 38.3573 5.088 37.888 5.088C37.4827 5.10933 37.056 5.22667 36.608 5.44C36.16 5.632 35.712 5.89867 35.264 6.24C35.6267 6.368 35.9573 6.464 36.256 6.528C36.5547 6.592 36.8853 6.63467 37.248 6.656C37.3973 6.48533 37.536 6.336 37.664 6.208C37.8133 6.05867 37.9627 5.94133 38.112 5.856L38.304 5.952C38.2187 6.05867 38.1333 6.176 38.048 6.304C37.9627 6.432 37.8667 6.56 37.76 6.688H38.016ZM40.544 26.656C40.096 26.656 39.6907 26.5173 39.328 26.24C39.0507 26.048 38.848 25.76 38.72 25.376C38.592 24.992 38.528 24.5653 38.528 24.096C38.528 23.712 38.56 23.3067 38.624 22.88C38.7093 22.4533 38.816 22.016 38.944 21.568C39.3067 20.3307 39.8613 18.9653 40.608 17.472C41.376 15.9787 42.2507 14.464 43.232 12.928C44.2133 11.392 45.248 9.952 46.336 8.608C47.4453 7.24267 48.5227 6.08 49.568 5.12L49.76 5.344C49.056 6.19733 48.3413 7.2 47.616 8.352C46.912 9.48267 46.2187 10.688 45.536 11.968C44.8747 13.248 44.2453 14.5387 43.648 15.84C43.072 17.12 42.5707 18.3467 42.144 19.52C42.1227 19.584 42.0373 19.808 41.888 20.192C41.76 20.576 41.6107 21.056 41.44 21.632C41.2907 22.1867 41.152 22.752 41.024 23.328C40.896 23.904 40.832 24.4053 40.832 24.832C40.832 25.1307 40.8747 25.376 40.96 25.568C41.0453 25.76 41.184 25.856 41.376 25.856C41.568 25.856 41.824 25.76 42.144 25.568C42.2933 25.4613 42.432 25.3547 42.56 25.248C42.688 25.1627 42.816 25.056 42.944 24.928L43.2 25.216C42.9013 25.5573 42.5067 25.8773 42.016 26.176C41.5467 26.496 41.056 26.656 40.544 26.656Z" fill="#B26DEB"/>
</g>
<defs>
<filter id="filter0_d_15_18" x="0.543945" y="0.543945" width="59.8401" height="37.536" filterUnits="userSpaceOnUse" color-interpolation-filters="sRGB">
<feFlood flood-opacity="0" result="BackgroundImageFix"/>
<feColorMatrix in="SourceAlpha" type="matrix" values="0 0 0 0 0 0 0 0 0 0 0 0 0 0 0 0 0 0 127 0" result="hardAlpha"/>
<feOffset dy="4"/>
<feGaussianBlur stdDeviation="2"/>
<feComposite in2="hardAlpha" operator="out"/>
<feColorMatrix type="matrix" values="0 0 0 0 0 0 0 0 0 0 0 0 0 0 0 0 0 0 0.25 0"/>
<feBlend mode="normal" in2="BackgroundImageFix" result="effect1_dropShadow_15_18"/>
<feBlend mode="normal" in="SourceGraphic" in2="effect1_dropShadow_15_18" result="shape"/>
</filter>
</defs>
</svg>
