<svg width="35" height="32" viewBox="0 0 35 32" fill="none" xmlns="http://www.w3.org/2000/svg">
<rect x="1" width="32" height="32" rx="16" fill="#B26DEB"/>
<g filter="url(#filter0_d_15_17)">
<path d="M7.232 23.04C6.56 23.04 6.00533 22.9227 5.568 22.688C5.13067 22.4533 4.80533 22.1493 4.592 21.776C4.37867 21.4027 4.272 21.0187 4.272 20.624C4.272 20.304 4.32533 20.016 4.432 19.76C4.64533 19.2587 5.02933 18.8213 5.584 18.448C6.13867 18.0747 6.816 17.888 7.616 17.888C7.712 17.888 7.808 17.8933 7.904 17.904C8.01067 17.9147 8.10667 17.9307 8.192 17.952C8.30933 17.9413 8.42133 17.904 8.528 17.84C8.63467 17.7653 8.71467 17.7013 8.768 17.648C8.82133 17.584 8.864 17.52 8.896 17.456C8.928 17.3813 8.944 17.3173 8.944 17.264C8.944 17.1893 8.91733 17.136 8.864 17.104C8.832 17.0827 8.816 17.0613 8.816 17.04C8.816 16.9653 8.88533 16.9493 9.024 16.992C9.22667 17.056 9.328 17.184 9.328 17.376C9.328 17.5573 9.232 17.712 9.04 17.84C8.96533 17.904 8.87467 17.952 8.768 17.984C8.672 18.0053 8.57067 18.016 8.464 18.016C8.82667 18.1227 9.15733 18.3093 9.456 18.576L9.536 18.544C9.67467 18.5013 9.82933 18.528 10 18.624C10.1707 18.72 10.2933 18.8747 10.368 19.088C10.4213 19.248 10.448 19.4187 10.448 19.6C10.448 19.792 10.416 19.9787 10.352 20.16C10.2987 20.3413 10.208 20.4693 10.08 20.544C9.952 20.6187 9.872 20.624 9.84 20.56C9.91467 20.496 9.952 20.4213 9.952 20.336C9.952 20.2507 9.92 20.16 9.856 20.064C9.80267 19.9787 9.744 19.9147 9.68 19.872C9.616 19.8187 9.54667 19.76 9.472 19.696C9.39733 19.6213 9.328 19.5147 9.264 19.376C9.21067 19.2693 9.184 19.168 9.184 19.072C9.184 18.9333 9.22667 18.8107 9.312 18.704C8.768 18.2667 8.13867 18.08 7.424 18.144C6.848 18.1973 6.36267 18.352 5.968 18.608C5.57333 18.8533 5.27467 19.1573 5.072 19.52C4.86933 19.8827 4.768 20.2613 4.768 20.656C4.768 21.1787 4.93867 21.6427 5.28 22.048L5.248 22C5.17333 21.8507 5.136 21.6747 5.136 21.472C5.136 21.344 5.152 21.2267 5.184 21.12C5.32267 20.768 5.52 20.592 5.776 20.592C5.94667 20.592 6.08533 20.672 6.192 20.832C6.23467 20.8853 6.256 20.944 6.256 21.008C6.256 21.104 6.21333 21.12 6.128 21.056C6.05333 21.0027 5.95733 21.008 5.84 21.072C5.72267 21.1467 5.62133 21.248 5.536 21.376C5.49333 21.4293 5.456 21.5093 5.424 21.616C5.392 21.7227 5.376 21.8347 5.376 21.952C5.376 22.016 5.38667 22.0907 5.408 22.176C5.61067 22.3787 5.856 22.5387 6.144 22.656C6.432 22.7733 6.768 22.832 7.152 22.832C7.70667 22.832 8.256 22.6933 8.8 22.416C9.344 22.1493 9.872 21.792 10.384 21.344C10.896 20.896 11.3867 20.3947 11.856 19.84C12.3253 19.2853 12.768 18.72 13.184 18.144C13.6 17.5573 13.9787 17.0027 14.32 16.48C14.672 15.9573 14.976 15.5093 15.232 15.136C15.7653 14.3467 16.32 13.5893 16.896 12.864C17.472 12.1387 18.0853 11.552 18.736 11.104C17.9893 10.8587 17.1947 10.5973 16.352 10.32C15.52 10.0427 14.6773 9.84 13.824 9.712C13.568 9.65867 13.3227 9.62667 13.088 9.616C13.0987 9.62667 13.088 9.62667 13.056 9.616C12.9173 9.59467 12.7947 9.62667 12.688 9.712C12.5813 9.78667 12.5067 9.856 12.464 9.92C12.3893 10.048 12.352 10.1653 12.352 10.272C12.352 10.368 12.384 10.432 12.448 10.464C12.5013 10.4853 12.528 10.512 12.528 10.544C12.528 10.5867 12.4907 10.608 12.416 10.608C12.3307 10.608 12.2293 10.576 12.112 10.512C12.0053 10.448 11.952 10.3467 11.952 10.208C11.952 10.0693 12.0053 9.94133 12.112 9.824C12.2293 9.70667 12.3733 9.62667 12.544 9.584C11.68 9.56267 10.9333 9.664 10.304 9.888C9.67467 10.112 9.15733 10.4107 8.752 10.784C8.34667 11.1467 8.04267 11.552 7.84 12C7.88267 12 7.904 12.0267 7.904 12.08C7.89333 12.304 7.92 12.4853 7.984 12.624C8.048 12.7627 8.13333 12.8907 8.24 13.008C8.304 12.8907 8.39467 12.8053 8.512 12.752C8.62933 12.6987 8.752 12.672 8.88 12.672C8.98667 12.672 9.07733 12.688 9.152 12.72C9.33333 12.784 9.472 12.8587 9.568 12.944C9.67467 13.0187 9.76533 13.0987 9.84 13.184C9.89333 13.248 9.97333 13.3067 10.08 13.36C10.1867 13.4133 10.288 13.44 10.384 13.44C10.5333 13.44 10.6453 13.3813 10.72 13.264C10.752 13.296 10.768 13.344 10.768 13.408C10.768 13.568 10.688 13.7067 10.528 13.824C10.3787 13.9413 10.192 14.032 9.968 14.096C9.75467 14.16 9.54133 14.192 9.328 14.192C8.944 14.192 8.64 14.08 8.416 13.856C8.20267 13.6213 8.11733 13.4027 8.16 13.2L8.176 13.168C8.03733 13.0507 7.936 12.928 7.872 12.8C7.808 12.6613 7.74933 12.512 7.696 12.352C7.57867 12.7253 7.52 13.0773 7.52 13.408C7.52 13.8453 7.61067 14.2613 7.792 14.656C7.97333 15.04 8.24 15.3493 8.592 15.584C8.944 15.8187 9.37067 15.936 9.872 15.936C10.3733 15.936 10.8587 15.808 11.328 15.552C11.7973 15.2853 12.176 14.928 12.464 14.48C12.752 14.0213 12.8747 13.504 12.832 12.928C12.8213 12.7467 12.7573 12.56 12.64 12.368C12.5333 12.176 12.3733 12.08 12.16 12.08C12.1067 12.08 12.048 12.0907 11.984 12.112C11.92 12.1333 11.8773 12.1707 11.856 12.224C11.8453 12.256 11.824 12.272 11.792 12.272C11.7387 12.272 11.712 12.224 11.712 12.128C11.712 11.9787 11.7653 11.856 11.872 11.76C11.9893 11.664 12.1173 11.616 12.256 11.616C12.4053 11.616 12.5493 11.6907 12.688 11.84C12.8373 11.9893 12.9173 12.2507 12.928 12.624C12.96 12.528 13.0027 12.432 13.056 12.336C13.1733 12.176 13.312 12.096 13.472 12.096C13.6427 12.096 13.7547 12.176 13.808 12.336C13.8293 12.4 13.8293 12.448 13.808 12.48C13.7867 12.512 13.7547 12.5067 13.712 12.464C13.68 12.432 13.6427 12.416 13.6 12.416C13.5147 12.416 13.4027 12.464 13.264 12.56C13.232 12.592 13.1947 12.64 13.152 12.704C13.1093 12.768 13.0773 12.8427 13.056 12.928C13.0773 13.5787 12.9547 14.1387 12.688 14.608C12.4213 15.0773 12.0747 15.4453 11.648 15.712C11.7013 15.7013 11.7493 15.696 11.792 15.696C11.8347 15.6853 11.8773 15.68 11.92 15.68C12.1333 15.68 12.304 15.7387 12.432 15.856C12.5707 15.9627 12.64 16.08 12.64 16.208C12.64 16.3467 12.5707 16.464 12.432 16.56C12.3573 16.6027 12.2987 16.6187 12.256 16.608C12.2133 16.5867 12.2133 16.5493 12.256 16.496C12.3093 16.432 12.304 16.352 12.24 16.256C12.1867 16.16 12.1067 16.0747 12 16C11.8827 15.904 11.7227 15.856 11.52 15.856C11.4987 15.856 11.472 15.856 11.44 15.856C11.408 15.856 11.3813 15.8613 11.36 15.872C10.9013 16.0853 10.416 16.192 9.904 16.192C9.25333 16.192 8.69867 16.064 8.24 15.808C7.792 15.5413 7.44 15.2107 7.184 14.816C7.184 14.88 7.17333 14.9547 7.152 15.04C7.088 15.2427 6.976 15.4187 6.816 15.568C6.86933 15.6747 6.896 15.7867 6.896 15.904C6.896 16.1707 6.784 16.416 6.56 16.64C6.432 16.7787 6.24533 16.9013 6 17.008C5.75467 17.104 5.52 17.152 5.296 17.152C5.11467 17.152 4.96533 17.1093 4.848 17.024C4.77333 16.9707 4.73067 16.9227 4.72 16.88C4.70933 16.8267 4.70933 16.7947 4.72 16.784C4.752 16.8053 4.8 16.816 4.864 16.816C4.992 16.816 5.104 16.7573 5.2 16.64C5.30667 16.512 5.37067 16.3947 5.392 16.288C5.41333 16.1813 5.44533 16.0693 5.488 15.952C5.53067 15.8347 5.60533 15.712 5.712 15.584C5.872 15.392 6.07467 15.296 6.32 15.296C6.49067 15.296 6.62933 15.3493 6.736 15.456C6.84267 15.328 6.92267 15.1573 6.976 14.944C6.98667 14.8907 6.992 14.8373 6.992 14.784C7.00267 14.7307 7.008 14.6827 7.008 14.64C7.008 14.544 7.00267 14.4747 6.992 14.432C6.832 14.048 6.752 13.6373 6.752 13.2C6.752 12.8267 6.81067 12.4533 6.928 12.08C7.056 11.696 7.248 11.3387 7.504 11.008C7.46133 11.0187 7.408 11.0293 7.344 11.04C7.29067 11.04 7.23733 11.04 7.184 11.04C7.04533 11.04 6.90667 11.0133 6.768 10.96C6.64 10.9067 6.52267 10.8267 6.416 10.72C6.384 10.7307 6.336 10.736 6.272 10.736C6.12267 10.736 5.96267 10.6773 5.792 10.56C5.632 10.4427 5.50933 10.2827 5.424 10.08C5.36 9.92 5.328 9.728 5.328 9.504C5.328 9.25867 5.36533 9.024 5.44 8.8C5.51467 8.576 5.62667 8.42667 5.776 8.352C5.86133 8.29867 5.92533 8.27733 5.968 8.288C6.01067 8.29867 6.04267 8.30933 6.064 8.32C5.97867 8.39467 5.936 8.49067 5.936 8.608C5.936 8.71467 5.968 8.82133 6.032 8.928C6.096 9.024 6.16533 9.09867 6.24 9.152C6.32533 9.216 6.41067 9.29067 6.496 9.376C6.592 9.46133 6.67733 9.57867 6.752 9.728C6.80533 9.856 6.832 9.97333 6.832 10.08C6.832 10.336 6.74133 10.528 6.56 10.656C6.70933 10.784 6.90667 10.848 7.152 10.848H7.248C7.39733 10.848 7.552 10.8213 7.712 10.768C8.128 10.2987 8.68267 9.91467 9.376 9.616C10.0693 9.31733 10.912 9.168 11.904 9.168C12.1493 9.168 12.4 9.17867 12.656 9.2C12.912 9.22133 13.1733 9.25333 13.44 9.296C14.0053 9.38133 14.6187 9.52 15.28 9.712C15.952 9.904 16.6133 10.1067 17.264 10.32C17.9147 10.5333 18.496 10.7307 19.008 10.912C19.3173 10.7307 19.632 10.5867 19.952 10.48C20.272 10.3733 20.6027 10.32 20.944 10.32C21.2427 10.32 21.4667 10.384 21.616 10.512C21.776 10.64 21.856 10.784 21.856 10.944C21.856 11.1147 21.76 11.2693 21.568 11.408C21.3867 11.5467 21.0987 11.6107 20.704 11.6C20.416 12.0267 20.1547 12.496 19.92 13.008C19.6853 13.52 19.472 14.032 19.28 14.544C19.0987 15.056 18.944 15.5307 18.816 15.968C18.656 16.512 18.48 17.0293 18.288 17.52C18.1067 18.0107 17.8293 18.4587 17.456 18.864C18.1173 18.3627 18.72 17.7867 19.264 17.136C19.8187 16.4853 20.32 15.8187 20.768 15.136C21.0667 14.6773 21.4293 14.16 21.856 13.584C22.2827 12.9973 22.752 12.4107 23.264 11.824C23.776 11.2267 24.304 10.672 24.848 10.16C25.4027 9.63733 25.9573 9.21067 26.512 8.88C27.0667 8.53867 27.5947 8.34667 28.096 8.304C28.16 8.29333 28.224 8.288 28.288 8.288C28.352 8.288 28.4107 8.288 28.464 8.288C29.0827 8.288 29.5253 8.42133 29.792 8.688C30.0587 8.944 30.192 9.22133 30.192 9.52C30.192 9.712 30.1387 9.89333 30.032 10.064C29.9253 10.224 29.7813 10.336 29.6 10.4L29.568 10.24C29.824 10.0907 29.952 9.87733 29.952 9.6C29.952 9.38667 29.856 9.18933 29.664 9.008C29.4827 8.82667 29.2053 8.736 28.832 8.736C28.64 8.736 28.4213 8.768 28.176 8.832C27.792 8.93867 27.3653 9.15733 26.896 9.488C26.4267 9.81867 25.936 10.2133 25.424 10.672C24.9227 11.1307 24.4267 11.6213 23.936 12.144C23.456 12.656 23.008 13.152 22.592 13.632C22.176 14.112 21.8187 14.5333 21.52 14.896C21.232 15.2587 21.0293 15.52 20.912 15.68C20.72 15.9467 20.4747 16.2667 20.176 16.64C19.888 17.0133 19.5573 17.3973 19.184 17.792C18.8213 18.176 18.4373 18.5387 18.032 18.88C17.6267 19.2107 17.216 19.4827 16.8 19.696C16.384 19.8987 15.9787 20 15.584 20C15.3707 20 15.264 19.9787 15.264 19.936C15.264 19.8827 15.3333 19.824 15.472 19.76C15.6107 19.696 15.7013 19.6427 15.744 19.6C15.7973 19.5573 15.888 19.4293 16.016 19.216C16.144 19.0027 16.2933 18.7467 16.464 18.448C16.6453 18.1387 16.8267 17.8187 17.008 17.488C17.2 17.1573 17.3707 16.8533 17.52 16.576C17.6693 16.288 17.7813 16.0587 17.856 15.888C17.92 15.76 18.0373 15.5307 18.208 15.2C18.3787 14.8587 18.5867 14.4747 18.832 14.048C19.0773 13.6107 19.3333 13.1733 19.6 12.736C19.8773 12.288 20.1493 11.8987 20.416 11.568C20.3413 11.5573 20.256 11.5413 20.16 11.52C20.064 11.4987 19.9627 11.4773 19.856 11.456L19.392 11.312C19.0507 11.6 18.7147 11.9413 18.384 12.336C18.0533 12.7307 17.744 13.136 17.456 13.552C17.1787 13.9573 16.928 14.3413 16.704 14.704C16.48 15.0667 16.2987 15.36 16.16 15.584C15.84 16.128 15.4453 16.7307 14.976 17.392C14.5067 18.0533 13.9787 18.7147 13.392 19.376C12.8053 20.0373 12.176 20.6453 11.504 21.2C10.8427 21.7547 10.1493 22.1973 9.424 22.528C8.69867 22.8693 7.968 23.04 7.232 23.04ZM21.008 11.344C21.1893 11.3333 21.3333 11.2853 21.44 11.2C21.5467 11.1147 21.6 11.0187 21.6 10.912C21.6 10.816 21.5467 10.7307 21.44 10.656C21.344 10.5813 21.1787 10.544 20.944 10.544C20.7413 10.5547 20.528 10.6133 20.304 10.72C20.08 10.816 19.856 10.9493 19.632 11.12C19.8133 11.184 19.9787 11.232 20.128 11.264C20.2773 11.296 20.4427 11.3173 20.624 11.328C20.6987 11.2427 20.768 11.168 20.832 11.104C20.9067 11.0293 20.9813 10.9707 21.056 10.928L21.152 10.976C21.1093 11.0293 21.0667 11.088 21.024 11.152C20.9813 11.216 20.9333 11.28 20.88 11.344H21.008ZM22.272 21.328C22.048 21.328 21.8453 21.2587 21.664 21.12C21.5253 21.024 21.424 20.88 21.36 20.688C21.296 20.496 21.264 20.2827 21.264 20.048C21.264 19.856 21.28 19.6533 21.312 19.44C21.3547 19.2267 21.408 19.008 21.472 18.784C21.6533 18.1653 21.9307 17.4827 22.304 16.736C22.688 15.9893 23.1253 15.232 23.616 14.464C24.1067 13.696 24.624 12.976 25.168 12.304C25.7227 11.6213 26.2613 11.04 26.784 10.56L26.88 10.672C26.528 11.0987 26.1707 11.6 25.808 12.176C25.456 12.7413 25.1093 13.344 24.768 13.984C24.4373 14.624 24.1227 15.2693 23.824 15.92C23.536 16.56 23.2853 17.1733 23.072 17.76C23.0613 17.792 23.0187 17.904 22.944 18.096C22.88 18.288 22.8053 18.528 22.72 18.816C22.6453 19.0933 22.576 19.376 22.512 19.664C22.448 19.952 22.416 20.2027 22.416 20.416C22.416 20.5653 22.4373 20.688 22.48 20.784C22.5227 20.88 22.592 20.928 22.688 20.928C22.784 20.928 22.912 20.88 23.072 20.784C23.1467 20.7307 23.216 20.6773 23.28 20.624C23.344 20.5813 23.408 20.528 23.472 20.464L23.6 20.608C23.4507 20.7787 23.2533 20.9387 23.008 21.088C22.7733 21.248 22.528 21.328 22.272 21.328Z" fill="white"/>
</g>
<defs>
<filter id="filter0_d_15_17" x="0.271973" y="8.27197" width="33.9199" height="22.7681" filterUnits="userSpaceOnUse" color-interpolation-filters="sRGB">
<feFlood flood-opacity="0" result="BackgroundImageFix"/>
<feColorMatrix in="SourceAlpha" type="matrix" values="0 0 0 0 0 0 0 0 0 0 0 0 0 0 0 0 0 0 127 0" result="hardAlpha"/>
<feOffset dy="4"/>
<feGaussianBlur stdDeviation="2"/>
<feComposite in2="hardAlpha" operator="out"/>
<feColorMatrix type="matrix" values="0 0 0 0 0 0 0 0 0 0 0 0 0 0 0 0 0 0 0.25 0"/>
<feBlend mode="normal" in2="BackgroundImageFix" result="effect1_dropShadow_15_17"/>
<feBlend mode="normal" in="SourceGraphic" in2="effect1_dropShadow_15_17" result="shape"/>
</filter>
</defs>
</svg>
