<svg width="14" height="11" viewBox="0 0 14 11" fill="none" xmlns="http://www.w3.org/2000/svg">
<path d="M6.04102 9.16211C5.73633 9.16211 5.32617 9.50586 4.81055 10.1934L4.07812 9.63672C4.42188 9.09766 4.79297 8.69727 5.19141 8.43555C5.48828 8.23633 5.77148 8.13672 6.04102 8.13672C6.50977 8.13672 6.80469 8.32812 6.92578 8.71094C7.55859 7.67188 7.97266 6.52344 8.16797 5.26562C8.22266 4.89844 8.25 4.53516 8.25 4.17578C8.25 3.8125 8.23633 3.48047 8.20898 3.17969C8.18164 2.875 8.13281 2.625 8.0625 2.42969C7.92578 2.03906 7.68945 1.84375 7.35352 1.84375C6.88086 1.84375 6.39453 2.11328 5.89453 2.65234C5.75391 2.80078 5.625 2.94727 5.50781 3.0918C5.62891 3.49414 5.68945 3.86328 5.68945 4.19922C5.68945 4.53125 5.67578 4.81641 5.64844 5.05469C5.625 5.29297 5.58008 5.54883 5.51367 5.82227C5.44727 6.0918 5.35547 6.38086 5.23828 6.68945C5.125 6.99805 4.97852 7.33203 4.79883 7.69141C4.41992 8.44531 3.9082 9.26953 3.26367 10.1641L2.56641 9.89453C2.56641 9.63281 2.5293 9.44531 2.45508 9.33203C2.38477 9.21875 2.29883 9.16211 2.19727 9.16211C1.93164 9.16211 1.52539 9.51953 0.978516 10.2344L0.169922 9.61914C0.916016 8.63086 1.5957 8.13672 2.20898 8.13672C2.6582 8.13672 2.95508 8.32227 3.09961 8.69336C4.14648 7.13086 4.66992 5.69141 4.66992 4.375C4.66992 3.66406 4.49414 3.05469 4.14258 2.54688C3.81055 2.07031 3.43359 1.83398 3.01172 1.83789C2.6875 1.83789 2.44336 1.91211 2.2793 2.06055C2.11914 2.20508 2.03906 2.37695 2.03906 2.57617C2.03906 2.77539 2.07812 2.94141 2.15625 3.07422C2.23438 3.20312 2.33008 3.32812 2.44336 3.44922C2.56055 3.57031 2.68555 3.69336 2.81836 3.81836C2.95508 3.93945 3.08203 4.07422 3.19922 4.22266C3.47266 4.57422 3.60742 4.95312 3.60352 5.35938C3.60352 5.73047 3.47461 6.04492 3.2168 6.30273C2.96289 6.55664 2.65039 6.68359 2.2793 6.68359C1.91602 6.68359 1.60938 6.55469 1.35938 6.29688C1.10547 6.03906 0.978516 5.72656 0.978516 5.35938C0.978516 4.92969 1.15234 4.58203 1.5 4.31641C1.60547 4.23828 1.72266 4.17578 1.85156 4.12891C1.58594 3.93359 1.4043 3.76367 1.30664 3.61914C1.11133 3.33008 1.01367 3.02734 1.01367 2.71094C1.01367 2.39062 1.05664 2.12109 1.14258 1.90234C1.23242 1.67969 1.35938 1.48828 1.52344 1.32812C1.875 0.988281 2.37109 0.818359 3.01172 0.818359C3.39453 0.818359 3.76172 0.917969 4.11328 1.11719C4.46484 1.31641 4.76953 1.59961 5.02734 1.9668C5.73438 1.20117 6.50977 0.818359 7.35352 0.818359C7.7168 0.818359 8.00781 0.876953 8.22656 0.994141C8.44531 1.11133 8.63086 1.29688 8.7832 1.55078C9.05273 1.3125 9.26953 1.15039 9.43359 1.06445C9.75781 0.900391 10.0938 0.818359 10.4414 0.818359C10.7891 0.818359 11.0723 0.921875 11.291 1.12891C11.5137 1.33594 11.6543 1.61914 11.7129 1.97852C11.7715 2.37695 11.8398 2.63281 11.918 2.74609C12 2.85938 12.084 2.92773 12.1699 2.95117C12.3301 2.81055 12.4102 2.56836 12.4102 2.22461H13.4355C13.4316 2.89258 13.207 3.40625 12.7617 3.76562L12.3105 4.11719C11.7598 4.52734 11.3828 5.125 11.1797 5.91016C11.1094 6.19141 11.0742 6.51562 11.0742 6.88281C11.0742 7.24609 11.127 7.56445 11.2324 7.83789C11.3379 8.10742 11.4727 8.32812 11.6367 8.5C11.9492 8.82031 12.3281 8.98047 12.7734 8.98047V10C12.0664 10 11.4609 9.75977 10.957 9.2793C10.3516 8.70117 10.0488 7.86914 10.0488 6.7832C10.0488 5.49023 10.4844 4.42773 11.3555 3.5957C11.168 3.4707 11.0391 3.31836 10.9688 3.13867C10.8984 2.95898 10.8516 2.81055 10.8281 2.69336L10.752 2.35938C10.709 2.16016 10.6523 2.02539 10.582 1.95508C10.5117 1.88086 10.4023 1.84375 10.2539 1.84375C9.96875 1.84375 9.59766 2.0957 9.14062 2.59961C9.22656 3.11523 9.26953 3.62305 9.26953 4.12305C9.26953 4.62305 9.23438 5.10547 9.16406 5.57031C9.09375 6.03125 8.97266 6.51562 8.80078 7.02344C8.42578 8.14453 7.85352 9.19141 7.08398 10.1641L6.38086 9.90039C6.38086 9.4082 6.26758 9.16211 6.04102 9.16211ZM2.28516 5.05469C2.19922 5.05469 2.125 5.08594 2.0625 5.14844C2.00391 5.21094 1.97461 5.28711 1.97461 5.37695C1.97461 5.46289 2.00391 5.53711 2.0625 5.59961C2.125 5.6582 2.19922 5.6875 2.28516 5.6875C2.375 5.6875 2.45117 5.6582 2.51367 5.59961C2.57617 5.53711 2.60742 5.46289 2.60742 5.37695C2.60742 5.28711 2.57617 5.21094 2.51367 5.14844C2.45117 5.08594 2.375 5.05469 2.28516 5.05469Z" fill="#B26DEB"/>
</svg>
